solid OpenSCAD_Model
  facet normal 1 -0 0
    outer loop
      vertex 52 52 21.2
      vertex 52 102 20
      vertex 52 102 21.2
    endloop
  endfacet
  facet normal 1 0 0
    outer loop
      vertex 52 102 20
      vertex 52 52 21.2
      vertex 52 52 20
    endloop
  endfacet
  facet normal 1 -0 0
    outer loop
      vertex 52 1.05 21.2
      vertex 52 51 20
      vertex 52 51 21.2
    endloop
  endfacet
  facet normal 1 0 0
    outer loop
      vertex 52 51 20
      vertex 52 1.05 21.2
      vertex 52 1.05 20
    endloop
  endfacet
  facet normal -0 0 1
    outer loop
      vertex 1 52 21.2
      vertex 51 51 21.2
      vertex 51 52 21.2
    endloop
  endfacet
  facet normal 0 0 1
    outer loop
      vertex 51 51 21.2
      vertex 1 52 21.2
      vertex 1 51 21.2
    endloop
  endfacet
  facet normal -0 0 1
    outer loop
      vertex 52 52 21.2
      vertex 102 51 21.2
      vertex 102 52 21.2
    endloop
  endfacet
  facet normal 0 0 1
    outer loop
      vertex 102 51 21.2
      vertex 52 52 21.2
      vertex 52 51 21.2
    endloop
  endfacet
  facet normal 0 0 1
    outer loop
      vertex 102 52 21.2
      vertex 103 103 21.2
      vertex 102 102 21.2
    endloop
  endfacet
  facet normal 0 0 1
    outer loop
      vertex 103 103 21.2
      vertex 52 102 21.2
      vertex 102 102 21.2
    endloop
  endfacet
  facet normal 0 0 1
    outer loop
      vertex 51 52 21.2
      vertex 52 52 21.2
      vertex 52 102 21.2
    endloop
  endfacet
  facet normal 0 0 1
    outer loop
      vertex 52 52 21.2
      vertex 51 52 21.2
      vertex 52 51 21.2
    endloop
  endfacet
  facet normal 0 0 1
    outer loop
      vertex 51 52 21.2
      vertex 52 102 21.2
      vertex 51 102 21.2
    endloop
  endfacet
  facet normal 0 0 1
    outer loop
      vertex 103 103 21.2
      vertex 51 102 21.2
      vertex 52 102 21.2
    endloop
  endfacet
  facet normal -0 0 1
    outer loop
      vertex 0 103 21.2
      vertex 51 102 21.2
      vertex 103 103 21.2
    endloop
  endfacet
  facet normal 0 0 1
    outer loop
      vertex 0 103 21.2
      vertex 1 52 21.2
      vertex 1 102 21.2
    endloop
  endfacet
  facet normal 0 0 1
    outer loop
      vertex 1 52 21.2
      vertex 0 103 21.2
      vertex 1 51 21.2
    endloop
  endfacet
  facet normal 0 0 1
    outer loop
      vertex 51 102 21.2
      vertex 0 103 21.2
      vertex 1 102 21.2
    endloop
  endfacet
  facet normal 0 0 1
    outer loop
      vertex 1 51 21.2
      vertex 0 103 21.2
      vertex 0 1.05 21.2
    endloop
  endfacet
  facet normal 0 0 1
    outer loop
      vertex 1 51 21.2
      vertex 0 1.05 21.2
      vertex 1 1.05 21.2
    endloop
  endfacet
  facet normal 0 0 1
    outer loop
      vertex 103 103 21.2
      vertex 102 52 21.2
      vertex 103 1.05 21.2
    endloop
  endfacet
  facet normal -0 0 1
    outer loop
      vertex 102 51 21.2
      vertex 103 1.05 21.2
      vertex 102 52 21.2
    endloop
  endfacet
  facet normal 0 0 1
    outer loop
      vertex 103 1.05 21.2
      vertex 102 51 21.2
      vertex 102 1.05 21.2
    endloop
  endfacet
  facet normal 0 0 1
    outer loop
      vertex 51 51 21.2
      vertex 52 51 21.2
      vertex 51 52 21.2
    endloop
  endfacet
  facet normal 0 0 1
    outer loop
      vertex 52 51 21.2
      vertex 51 51 21.2
      vertex 52 1.05 21.2
    endloop
  endfacet
  facet normal 0 0 1
    outer loop
      vertex 52 1.05 21.2
      vertex 51 51 21.2
      vertex 51 1.05 21.2
    endloop
  endfacet
  facet normal 0 0 -1
    outer loop
      vertex 0 31 0
      vertex 3 49 0
      vertex 3 31 0
    endloop
  endfacet
  facet normal -0 0 -1
    outer loop
      vertex 3 49 0
      vertex 0 31 0
      vertex 3 54 0
    endloop
  endfacet
  facet normal 0 0 -1
    outer loop
      vertex 0 72 0
      vertex 3 54 0
      vertex 0 31 0
    endloop
  endfacet
  facet normal 0 0 -1
    outer loop
      vertex 3 54 0
      vertex 0 72 0
      vertex 3 72 0
    endloop
  endfacet
  facet normal 0 0 -1
    outer loop
      vertex 3 49 0
      vertex 21 54 0
      vertex 21 49 0
    endloop
  endfacet
  facet normal -0 0 -1
    outer loop
      vertex 21 54 0
      vertex 3 49 0
      vertex 3 54 0
    endloop
  endfacet
  facet normal 0 0 -1
    outer loop
      vertex 21 1.05 0
      vertex 3 3 0
      vertex 21 3 0
    endloop
  endfacet
  facet normal 0 0 -1
    outer loop
      vertex 0 1.05 0
      vertex 3 3 0
      vertex 21 1.05 0
    endloop
  endfacet
  facet normal 0 0 -1
    outer loop
      vertex 0 21 0
      vertex 3 3 0
      vertex 0 1.05 0
    endloop
  endfacet
  facet normal 0 0 -1
    outer loop
      vertex 3 3 0
      vertex 0 21 0
      vertex 3 21 0
    endloop
  endfacet
  facet normal 0 0 -1
    outer loop
      vertex 31 49 0
      vertex 49 54 0
      vertex 49 49 0
    endloop
  endfacet
  facet normal -0 0 -1
    outer loop
      vertex 49 54 0
      vertex 31 49 0
      vertex 31 54 0
    endloop
  endfacet
  facet normal 0 0 -1
    outer loop
      vertex 49 49 0
      vertex 54 49 0
      vertex 54 31 0
    endloop
  endfacet
  facet normal 0 0 -1
    outer loop
      vertex 54 49 0
      vertex 49 49 0
      vertex 54 54 0
    endloop
  endfacet
  facet normal 0 0 -1
    outer loop
      vertex 49 49 0
      vertex 54 31 0
      vertex 49 31 0
    endloop
  endfacet
  facet normal 0 0 -1
    outer loop
      vertex 49 54 0
      vertex 54 54 0
      vertex 49 49 0
    endloop
  endfacet
  facet normal 0 0 -1
    outer loop
      vertex 54 54 0
      vertex 49 54 0
      vertex 54 72 0
    endloop
  endfacet
  facet normal -0 0 -1
    outer loop
      vertex 54 72 0
      vertex 49 54 0
      vertex 49 72 0
    endloop
  endfacet
  facet normal 0 0 -1
    outer loop
      vertex 54 49 0
      vertex 72 54 0
      vertex 72 49 0
    endloop
  endfacet
  facet normal -0 0 -1
    outer loop
      vertex 72 54 0
      vertex 54 49 0
      vertex 54 54 0
    endloop
  endfacet
  facet normal 0 0 -1
    outer loop
      vertex 72 1.05 0
      vertex 54 3 0
      vertex 72 3 0
    endloop
  endfacet
  facet normal 0 0 -1
    outer loop
      vertex 54 3 0
      vertex 49 3 0
      vertex 54 21 0
    endloop
  endfacet
  facet normal 0 0 -1
    outer loop
      vertex 72 1.05 0
      vertex 49 3 0
      vertex 54 3 0
    endloop
  endfacet
  facet normal 0 0 -1
    outer loop
      vertex 31 1.05 0
      vertex 49 3 0
      vertex 72 1.05 0
    endloop
  endfacet
  facet normal -0 0 -1
    outer loop
      vertex 49 3 0
      vertex 31 1.05 0
      vertex 31 3 0
    endloop
  endfacet
  facet normal -0 0 -1
    outer loop
      vertex 54 21 0
      vertex 49 3 0
      vertex 49 21 0
    endloop
  endfacet
  facet normal -1 0 0
    outer loop
      vertex 0 21 0
      vertex 0 1.05 0
      vertex 0 21 5.05
    endloop
  endfacet
  facet normal -1 0 0
    outer loop
      vertex 0 72 0
      vertex 0 31 0
      vertex 0 72 5.05
    endloop
  endfacet
  facet normal -1 0 0
    outer loop
      vertex 0 82 5.05
      vertex 0 103 0
      vertex 0 82 0
    endloop
  endfacet
  facet normal -1 0 0
    outer loop
      vertex 0 103 0
      vertex 0 82 5.05
      vertex 0 103 21.2
    endloop
  endfacet
  facet normal -1 0 0
    outer loop
      vertex 0 72 5.05
      vertex 0 103 21.2
      vertex 0 82 5.05
    endloop
  endfacet
  facet normal -1 0 0
    outer loop
      vertex 0 31 5.05
      vertex 0 72 5.05
      vertex 0 31 0
    endloop
  endfacet
  facet normal -1 0 0
    outer loop
      vertex 0 1.05 21.2
      vertex 0 72 5.05
      vertex 0 31 5.05
    endloop
  endfacet
  facet normal -1 0 0
    outer loop
      vertex 0 1.05 21.2
      vertex 0 31 5.05
      vertex 0 21 5.05
    endloop
  endfacet
  facet normal -1 0 0
    outer loop
      vertex 0 72 5.05
      vertex 0 1.05 21.2
      vertex 0 103 21.2
    endloop
  endfacet
  facet normal -1 0 0
    outer loop
      vertex 0 1.05 21.2
      vertex 0 21 5.05
      vertex 0 1.05 0
    endloop
  endfacet
  facet normal 0 1 -0
    outer loop
      vertex 51 52 20
      vertex 1 52 21.2
      vertex 51 52 21.2
    endloop
  endfacet
  facet normal 0 1 0
    outer loop
      vertex 1 52 21.2
      vertex 51 52 20
      vertex 1 52 20
    endloop
  endfacet
  facet normal -1 0 0
    outer loop
      vertex 51 52 20
      vertex 51 102 21.2
      vertex 51 102 20
    endloop
  endfacet
  facet normal -1 -0 0
    outer loop
      vertex 51 102 21.2
      vertex 51 52 20
      vertex 51 52 21.2
    endloop
  endfacet
  facet normal -1 0 0
    outer loop
      vertex 51 1.05 20
      vertex 51 51 21.2
      vertex 51 51 20
    endloop
  endfacet
  facet normal -1 -0 0
    outer loop
      vertex 51 51 21.2
      vertex 51 1.05 20
      vertex 51 1.05 21.2
    endloop
  endfacet
  facet normal 1 -0 0
    outer loop
      vertex 1 1.05 21.2
      vertex 1 51 20
      vertex 1 51 21.2
    endloop
  endfacet
  facet normal 1 0 0
    outer loop
      vertex 1 51 20
      vertex 1 1.05 21.2
      vertex 1 1.05 20
    endloop
  endfacet
  facet normal 0 -1 0
    outer loop
      vertex 1 51 20
      vertex 51 51 21.2
      vertex 1 51 21.2
    endloop
  endfacet
  facet normal 0 -1 -0
    outer loop
      vertex 51 51 21.2
      vertex 1 51 20
      vertex 51 51 20
    endloop
  endfacet
  facet normal 0 0 1
    outer loop
      vertex 51 51 20
      vertex 49 49 20
      vertex 51 1.05 20
    endloop
  endfacet
  facet normal 0 0 1
    outer loop
      vertex 51 51 20
      vertex 3 49 20
      vertex 49 49 20
    endloop
  endfacet
  facet normal 0 0 1
    outer loop
      vertex 1 1.05 20
      vertex 3 49 20
      vertex 1 51 20
    endloop
  endfacet
  facet normal -0 0 1
    outer loop
      vertex 1 51 20
      vertex 3 49 20
      vertex 51 51 20
    endloop
  endfacet
  facet normal -0 0 1
    outer loop
      vertex 49 3 20
      vertex 51 1.05 20
      vertex 49 49 20
    endloop
  endfacet
  facet normal -0 0 1
    outer loop
      vertex 3 3 20
      vertex 51 1.05 20
      vertex 49 3 20
    endloop
  endfacet
  facet normal 0 0 1
    outer loop
      vertex 3 3 20
      vertex 1 1.05 20
      vertex 51 1.05 20
    endloop
  endfacet
  facet normal 0 0 1
    outer loop
      vertex 3 49 20
      vertex 1 1.05 20
      vertex 3 3 20
    endloop
  endfacet
  facet normal -1 0 0
    outer loop
      vertex 49 21 0
      vertex 49 3 0
      vertex 49 21 5.05
    endloop
  endfacet
  facet normal -1 0 0
    outer loop
      vertex 49 31 5.05
      vertex 49 49 0
      vertex 49 31 0
    endloop
  endfacet
  facet normal -1 0 0
    outer loop
      vertex 49 49 0
      vertex 49 31 5.05
      vertex 49 49 20
    endloop
  endfacet
  facet normal -1 0 0
    outer loop
      vertex 49 21 5.05
      vertex 49 49 20
      vertex 49 31 5.05
    endloop
  endfacet
  facet normal -1 0 0
    outer loop
      vertex 49 3 20
      vertex 49 21 5.05
      vertex 49 3 0
    endloop
  endfacet
  facet normal -1 0 0
    outer loop
      vertex 49 21 5.05
      vertex 49 3 20
      vertex 49 49 20
    endloop
  endfacet
  facet normal 1 0 0
    outer loop
      vertex 3 49 20
      vertex 3 31 5.05
      vertex 3 49 0
    endloop
  endfacet
  facet normal 1 0 0
    outer loop
      vertex 3 49 20
      vertex 3 21 5.05
      vertex 3 31 5.05
    endloop
  endfacet
  facet normal 1 -0 0
    outer loop
      vertex 3 3 20
      vertex 3 21 5.05
      vertex 3 49 20
    endloop
  endfacet
  facet normal 1 0 0
    outer loop
      vertex 3 3 0
      vertex 3 21 5.05
      vertex 3 3 20
    endloop
  endfacet
  facet normal 1 0 0
    outer loop
      vertex 3 21 5.05
      vertex 3 3 0
      vertex 3 21 0
    endloop
  endfacet
  facet normal 1 0 0
    outer loop
      vertex 3 49 0
      vertex 3 31 5.05
      vertex 3 31 0
    endloop
  endfacet
  facet normal 0 -1 0
    outer loop
      vertex 3 49 20
      vertex 21 49 5.05
      vertex 49 49 20
    endloop
  endfacet
  facet normal 0 -1 0
    outer loop
      vertex 3 49 0
      vertex 21 49 5.05
      vertex 3 49 20
    endloop
  endfacet
  facet normal 0 -1 -0
    outer loop
      vertex 21 49 5.05
      vertex 3 49 0
      vertex 21 49 0
    endloop
  endfacet
  facet normal 0 -1 0
    outer loop
      vertex 31 49 5.05
      vertex 49 49 20
      vertex 21 49 5.05
    endloop
  endfacet
  facet normal 0 -1 0
    outer loop
      vertex 49 49 0
      vertex 31 49 5.05
      vertex 31 49 0
    endloop
  endfacet
  facet normal 0 -1 0
    outer loop
      vertex 31 49 5.05
      vertex 49 49 0
      vertex 49 49 20
    endloop
  endfacet
  facet normal 0 1 0
    outer loop
      vertex 49 3 20
      vertex 31 3 5.05
      vertex 3 3 20
    endloop
  endfacet
  facet normal 0 1 -0
    outer loop
      vertex 49 3 0
      vertex 31 3 5.05
      vertex 49 3 20
    endloop
  endfacet
  facet normal 0 1 0
    outer loop
      vertex 31 3 5.05
      vertex 49 3 0
      vertex 31 3 0
    endloop
  endfacet
  facet normal 0 1 -0
    outer loop
      vertex 21 3 5.05
      vertex 3 3 20
      vertex 31 3 5.05
    endloop
  endfacet
  facet normal 0 1 0
    outer loop
      vertex 3 3 0
      vertex 21 3 5.05
      vertex 21 3 0
    endloop
  endfacet
  facet normal 0 1 0
    outer loop
      vertex 21 3 5.05
      vertex 3 3 0
      vertex 3 3 20
    endloop
  endfacet
  facet normal -1 0 0
    outer loop
      vertex 31 1.05 0
      vertex 31 3 5.05
      vertex 31 3 0
    endloop
  endfacet
  facet normal -1 -0 0
    outer loop
      vertex 31 3 5.05
      vertex 31 1.05 0
      vertex 31 1.05 5.05
    endloop
  endfacet
  facet normal -1 0 0
    outer loop
      vertex 31 49 0
      vertex 31 54 5.05
      vertex 31 54 0
    endloop
  endfacet
  facet normal -1 -0 0
    outer loop
      vertex 31 54 5.05
      vertex 31 49 0
      vertex 31 49 5.05
    endloop
  endfacet
  facet normal 0 0 -1
    outer loop
      vertex 21 49 5.05
      vertex 31 54 5.05
      vertex 31 49 5.05
    endloop
  endfacet
  facet normal -0 0 -1
    outer loop
      vertex 31 54 5.05
      vertex 21 49 5.05
      vertex 21 54 5.05
    endloop
  endfacet
  facet normal 0 0 -1
    outer loop
      vertex 21 1.05 5.05
      vertex 31 3 5.05
      vertex 31 1.05 5.05
    endloop
  endfacet
  facet normal -0 0 -1
    outer loop
      vertex 31 3 5.05
      vertex 21 1.05 5.05
      vertex 21 3 5.05
    endloop
  endfacet
  facet normal 1 -0 0
    outer loop
      vertex 21 1.05 5.05
      vertex 21 3 0
      vertex 21 3 5.05
    endloop
  endfacet
  facet normal 1 0 0
    outer loop
      vertex 21 3 0
      vertex 21 1.05 5.05
      vertex 21 1.05 0
    endloop
  endfacet
  facet normal 1 -0 0
    outer loop
      vertex 21 49 5.05
      vertex 21 54 0
      vertex 21 54 5.05
    endloop
  endfacet
  facet normal 1 0 0
    outer loop
      vertex 21 54 0
      vertex 21 49 5.05
      vertex 21 49 0
    endloop
  endfacet
  facet normal 0 0 -1
    outer loop
      vertex 0 21 5.05
      vertex 3 31 5.05
      vertex 3 21 5.05
    endloop
  endfacet
  facet normal -0 0 -1
    outer loop
      vertex 3 31 5.05
      vertex 0 21 5.05
      vertex 0 31 5.05
    endloop
  endfacet
  facet normal 0 0 -1
    outer loop
      vertex 49 21 5.05
      vertex 54 31 5.05
      vertex 54 21 5.05
    endloop
  endfacet
  facet normal -0 0 -1
    outer loop
      vertex 54 31 5.05
      vertex 49 21 5.05
      vertex 49 31 5.05
    endloop
  endfacet
  facet normal 0 -1 0
    outer loop
      vertex 0 31 0
      vertex 3 31 5.05
      vertex 0 31 5.05
    endloop
  endfacet
  facet normal 0 -1 -0
    outer loop
      vertex 3 31 5.05
      vertex 0 31 0
      vertex 3 31 0
    endloop
  endfacet
  facet normal 0 -1 0
    outer loop
      vertex 49 31 0
      vertex 54 31 5.05
      vertex 49 31 5.05
    endloop
  endfacet
  facet normal 0 -1 -0
    outer loop
      vertex 54 31 5.05
      vertex 49 31 0
      vertex 54 31 0
    endloop
  endfacet
  facet normal 0 1 -0
    outer loop
      vertex 3 21 0
      vertex 0 21 5.05
      vertex 3 21 5.05
    endloop
  endfacet
  facet normal 0 1 0
    outer loop
      vertex 0 21 5.05
      vertex 3 21 0
      vertex 0 21 0
    endloop
  endfacet
  facet normal 0 1 -0
    outer loop
      vertex 54 21 0
      vertex 49 21 5.05
      vertex 54 21 5.05
    endloop
  endfacet
  facet normal 0 1 0
    outer loop
      vertex 49 21 5.05
      vertex 54 21 0
      vertex 49 21 0
    endloop
  endfacet
  facet normal 0 0 -1
    outer loop
      vertex 3 82 0
      vertex 0 82 0
      vertex 3 100 0
    endloop
  endfacet
  facet normal 0 0 -1
    outer loop
      vertex 3 100 0
      vertex 21 103 0
      vertex 21 100 0
    endloop
  endfacet
  facet normal 0 0 -1
    outer loop
      vertex 3 100 0
      vertex 0 103 0
      vertex 21 103 0
    endloop
  endfacet
  facet normal 0 0 -1
    outer loop
      vertex 0 103 0
      vertex 3 100 0
      vertex 0 82 0
    endloop
  endfacet
  facet normal 0 0 -1
    outer loop
      vertex 54 82 0
      vertex 49 82 0
      vertex 54 100 0
    endloop
  endfacet
  facet normal 0 0 -1
    outer loop
      vertex 54 100 0
      vertex 72 103 0
      vertex 72 100 0
    endloop
  endfacet
  facet normal 0 0 -1
    outer loop
      vertex 49 100 0
      vertex 54 100 0
      vertex 49 82 0
    endloop
  endfacet
  facet normal 0 0 -1
    outer loop
      vertex 49 100 0
      vertex 72 103 0
      vertex 54 100 0
    endloop
  endfacet
  facet normal 0 0 -1
    outer loop
      vertex 31 103 0
      vertex 49 100 0
      vertex 31 100 0
    endloop
  endfacet
  facet normal 0 0 -1
    outer loop
      vertex 49 100 0
      vertex 31 103 0
      vertex 72 103 0
    endloop
  endfacet
  facet normal 0 1 -0
    outer loop
      vertex 72 103 0
      vertex 31 103 5.05
      vertex 72 103 5.05
    endloop
  endfacet
  facet normal 0 1 0
    outer loop
      vertex 31 103 5.05
      vertex 72 103 0
      vertex 31 103 0
    endloop
  endfacet
  facet normal 0 1 0
    outer loop
      vertex 72 103 5.05
      vertex 103 103 21.2
      vertex 82 103 5.05
    endloop
  endfacet
  facet normal 0 1 -0
    outer loop
      vertex 103 103 0
      vertex 82 103 5.05
      vertex 103 103 21.2
    endloop
  endfacet
  facet normal 0 1 0
    outer loop
      vertex 82 103 5.05
      vertex 103 103 0
      vertex 82 103 0
    endloop
  endfacet
  facet normal 0 1 0
    outer loop
      vertex 103 103 21.2
      vertex 72 103 5.05
      vertex 0 103 21.2
    endloop
  endfacet
  facet normal 0 1 -0
    outer loop
      vertex 31 103 5.05
      vertex 0 103 21.2
      vertex 72 103 5.05
    endloop
  endfacet
  facet normal 0 1 -0
    outer loop
      vertex 21 103 5.05
      vertex 0 103 21.2
      vertex 31 103 5.05
    endloop
  endfacet
  facet normal 0 1 0
    outer loop
      vertex 0 103 0
      vertex 21 103 5.05
      vertex 21 103 0
    endloop
  endfacet
  facet normal 0 1 0
    outer loop
      vertex 21 103 5.05
      vertex 0 103 0
      vertex 0 103 21.2
    endloop
  endfacet
  facet normal 1 -0 0
    outer loop
      vertex 1 52 21.2
      vertex 1 102 20
      vertex 1 102 21.2
    endloop
  endfacet
  facet normal 1 0 0
    outer loop
      vertex 1 102 20
      vertex 1 52 21.2
      vertex 1 52 20
    endloop
  endfacet
  facet normal 0 -1 0
    outer loop
      vertex 1 102 20
      vertex 51 102 21.2
      vertex 1 102 21.2
    endloop
  endfacet
  facet normal 0 -1 -0
    outer loop
      vertex 51 102 21.2
      vertex 1 102 20
      vertex 51 102 20
    endloop
  endfacet
  facet normal 0 0 1
    outer loop
      vertex 51 102 20
      vertex 49 100 20
      vertex 51 52 20
    endloop
  endfacet
  facet normal 0 0 1
    outer loop
      vertex 51 102 20
      vertex 3 100 20
      vertex 49 100 20
    endloop
  endfacet
  facet normal 0 0 1
    outer loop
      vertex 3 100 20
      vertex 1 102 20
      vertex 3 54 20
    endloop
  endfacet
  facet normal -0 0 1
    outer loop
      vertex 1 102 20
      vertex 3 100 20
      vertex 51 102 20
    endloop
  endfacet
  facet normal -0 0 1
    outer loop
      vertex 49 54 20
      vertex 51 52 20
      vertex 49 100 20
    endloop
  endfacet
  facet normal -0 0 1
    outer loop
      vertex 3 54 20
      vertex 51 52 20
      vertex 49 54 20
    endloop
  endfacet
  facet normal 0 0 1
    outer loop
      vertex 3 54 20
      vertex 1 52 20
      vertex 51 52 20
    endloop
  endfacet
  facet normal 0 0 1
    outer loop
      vertex 1 52 20
      vertex 3 54 20
      vertex 1 102 20
    endloop
  endfacet
  facet normal -1 0 0
    outer loop
      vertex 49 72 0
      vertex 49 54 0
      vertex 49 72 5.05
    endloop
  endfacet
  facet normal -1 0 0
    outer loop
      vertex 49 82 5.05
      vertex 49 100 0
      vertex 49 82 0
    endloop
  endfacet
  facet normal -1 0 0
    outer loop
      vertex 49 100 0
      vertex 49 82 5.05
      vertex 49 100 20
    endloop
  endfacet
  facet normal -1 0 0
    outer loop
      vertex 49 72 5.05
      vertex 49 100 20
      vertex 49 82 5.05
    endloop
  endfacet
  facet normal -1 0 0
    outer loop
      vertex 49 54 20
      vertex 49 72 5.05
      vertex 49 54 0
    endloop
  endfacet
  facet normal -1 0 0
    outer loop
      vertex 49 72 5.05
      vertex 49 54 20
      vertex 49 100 20
    endloop
  endfacet
  facet normal 1 0 0
    outer loop
      vertex 3 100 20
      vertex 3 82 5.05
      vertex 3 100 0
    endloop
  endfacet
  facet normal 1 0 0
    outer loop
      vertex 3 100 20
      vertex 3 72 5.05
      vertex 3 82 5.05
    endloop
  endfacet
  facet normal 1 -0 0
    outer loop
      vertex 3 54 20
      vertex 3 72 5.05
      vertex 3 100 20
    endloop
  endfacet
  facet normal 1 0 0
    outer loop
      vertex 3 54 0
      vertex 3 72 5.05
      vertex 3 54 20
    endloop
  endfacet
  facet normal 1 0 0
    outer loop
      vertex 3 72 5.05
      vertex 3 54 0
      vertex 3 72 0
    endloop
  endfacet
  facet normal 1 0 0
    outer loop
      vertex 3 100 0
      vertex 3 82 5.05
      vertex 3 82 0
    endloop
  endfacet
  facet normal 0 -1 0
    outer loop
      vertex 3 100 20
      vertex 21 100 5.05
      vertex 49 100 20
    endloop
  endfacet
  facet normal 0 -1 0
    outer loop
      vertex 3 100 0
      vertex 21 100 5.05
      vertex 3 100 20
    endloop
  endfacet
  facet normal 0 -1 -0
    outer loop
      vertex 21 100 5.05
      vertex 3 100 0
      vertex 21 100 0
    endloop
  endfacet
  facet normal 0 -1 0
    outer loop
      vertex 31 100 5.05
      vertex 49 100 20
      vertex 21 100 5.05
    endloop
  endfacet
  facet normal 0 -1 0
    outer loop
      vertex 49 100 0
      vertex 31 100 5.05
      vertex 31 100 0
    endloop
  endfacet
  facet normal 0 -1 0
    outer loop
      vertex 31 100 5.05
      vertex 49 100 0
      vertex 49 100 20
    endloop
  endfacet
  facet normal 0 1 0
    outer loop
      vertex 49 54 20
      vertex 31 54 5.05
      vertex 3 54 20
    endloop
  endfacet
  facet normal 0 1 -0
    outer loop
      vertex 49 54 0
      vertex 31 54 5.05
      vertex 49 54 20
    endloop
  endfacet
  facet normal 0 1 0
    outer loop
      vertex 31 54 5.05
      vertex 49 54 0
      vertex 31 54 0
    endloop
  endfacet
  facet normal 0 1 -0
    outer loop
      vertex 21 54 5.05
      vertex 3 54 20
      vertex 31 54 5.05
    endloop
  endfacet
  facet normal 0 1 0
    outer loop
      vertex 3 54 0
      vertex 21 54 5.05
      vertex 21 54 0
    endloop
  endfacet
  facet normal 0 1 0
    outer loop
      vertex 21 54 5.05
      vertex 3 54 0
      vertex 3 54 20
    endloop
  endfacet
  facet normal -1 0 0
    outer loop
      vertex 31 100 0
      vertex 31 103 5.05
      vertex 31 103 0
    endloop
  endfacet
  facet normal -1 -0 0
    outer loop
      vertex 31 103 5.05
      vertex 31 100 0
      vertex 31 100 5.05
    endloop
  endfacet
  facet normal 0 0 -1
    outer loop
      vertex 21 100 5.05
      vertex 31 103 5.05
      vertex 31 100 5.05
    endloop
  endfacet
  facet normal -0 0 -1
    outer loop
      vertex 31 103 5.05
      vertex 21 100 5.05
      vertex 21 103 5.05
    endloop
  endfacet
  facet normal 1 -0 0
    outer loop
      vertex 21 100 5.05
      vertex 21 103 0
      vertex 21 103 5.05
    endloop
  endfacet
  facet normal 1 0 0
    outer loop
      vertex 21 103 0
      vertex 21 100 5.05
      vertex 21 100 0
    endloop
  endfacet
  facet normal 0 0 -1
    outer loop
      vertex 0 72 5.05
      vertex 3 82 5.05
      vertex 3 72 5.05
    endloop
  endfacet
  facet normal -0 0 -1
    outer loop
      vertex 3 82 5.05
      vertex 0 72 5.05
      vertex 0 82 5.05
    endloop
  endfacet
  facet normal 0 0 -1
    outer loop
      vertex 49 72 5.05
      vertex 54 82 5.05
      vertex 54 72 5.05
    endloop
  endfacet
  facet normal -0 0 -1
    outer loop
      vertex 54 82 5.05
      vertex 49 72 5.05
      vertex 49 82 5.05
    endloop
  endfacet
  facet normal 0 -1 0
    outer loop
      vertex 0 82 0
      vertex 3 82 5.05
      vertex 0 82 5.05
    endloop
  endfacet
  facet normal 0 -1 -0
    outer loop
      vertex 3 82 5.05
      vertex 0 82 0
      vertex 3 82 0
    endloop
  endfacet
  facet normal 0 -1 0
    outer loop
      vertex 49 82 0
      vertex 54 82 5.05
      vertex 49 82 5.05
    endloop
  endfacet
  facet normal 0 -1 -0
    outer loop
      vertex 54 82 5.05
      vertex 49 82 0
      vertex 54 82 0
    endloop
  endfacet
  facet normal 0 1 -0
    outer loop
      vertex 3 72 0
      vertex 0 72 5.05
      vertex 3 72 5.05
    endloop
  endfacet
  facet normal 0 1 0
    outer loop
      vertex 0 72 5.05
      vertex 3 72 0
      vertex 0 72 0
    endloop
  endfacet
  facet normal 0 1 -0
    outer loop
      vertex 54 72 0
      vertex 49 72 5.05
      vertex 54 72 5.05
    endloop
  endfacet
  facet normal 0 1 0
    outer loop
      vertex 49 72 5.05
      vertex 54 72 0
      vertex 49 72 0
    endloop
  endfacet
  facet normal 1 0 0
    outer loop
      vertex 103 103 21.2
      vertex 103 82 5.05
      vertex 103 103 0
    endloop
  endfacet
  facet normal 1 0 0
    outer loop
      vertex 103 103 21.2
      vertex 103 72 5.05
      vertex 103 82 5.05
    endloop
  endfacet
  facet normal 1 0 0
    outer loop
      vertex 103 72 5.05
      vertex 103 31 5.05
      vertex 103 72 0
    endloop
  endfacet
  facet normal 1 -0 0
    outer loop
      vertex 103 1.05 21.2
      vertex 103 72 5.05
      vertex 103 103 21.2
    endloop
  endfacet
  facet normal 1 0 0
    outer loop
      vertex 103 72 5.05
      vertex 103 1.05 21.2
      vertex 103 31 5.05
    endloop
  endfacet
  facet normal 1 0 0
    outer loop
      vertex 103 31 5.05
      vertex 103 1.05 21.2
      vertex 103 21 5.05
    endloop
  endfacet
  facet normal 1 0 0
    outer loop
      vertex 103 1.05 0
      vertex 103 21 5.05
      vertex 103 1.05 21.2
    endloop
  endfacet
  facet normal 1 0 0
    outer loop
      vertex 103 21 5.05
      vertex 103 1.05 0
      vertex 103 21 0
    endloop
  endfacet
  facet normal 1 0 0
    outer loop
      vertex 103 103 0
      vertex 103 82 5.05
      vertex 103 82 0
    endloop
  endfacet
  facet normal 1 0 0
    outer loop
      vertex 103 72 0
      vertex 103 31 5.05
      vertex 103 31 0
    endloop
  endfacet
  facet normal 0 0 -1
    outer loop
      vertex 82 49 0
      vertex 100 54 0
      vertex 100 49 0
    endloop
  endfacet
  facet normal -0 0 -1
    outer loop
      vertex 100 54 0
      vertex 82 49 0
      vertex 82 54 0
    endloop
  endfacet
  facet normal 0 0 -1
    outer loop
      vertex 100 49 0
      vertex 103 31 0
      vertex 100 31 0
    endloop
  endfacet
  facet normal 0 0 -1
    outer loop
      vertex 103 31 0
      vertex 100 49 0
      vertex 103 72 0
    endloop
  endfacet
  facet normal 0 0 -1
    outer loop
      vertex 100 54 0
      vertex 103 72 0
      vertex 100 49 0
    endloop
  endfacet
  facet normal -0 0 -1
    outer loop
      vertex 103 72 0
      vertex 100 54 0
      vertex 100 72 0
    endloop
  endfacet
  facet normal 0 0 -1
    outer loop
      vertex 103 1.05 0
      vertex 100 3 0
      vertex 103 21 0
    endloop
  endfacet
  facet normal 0 0 -1
    outer loop
      vertex 82 1.05 0
      vertex 100 3 0
      vertex 103 1.05 0
    endloop
  endfacet
  facet normal -0 0 -1
    outer loop
      vertex 100 3 0
      vertex 82 1.05 0
      vertex 82 3 0
    endloop
  endfacet
  facet normal -0 0 -1
    outer loop
      vertex 103 21 0
      vertex 100 3 0
      vertex 100 21 0
    endloop
  endfacet
  facet normal 0 1 -0
    outer loop
      vertex 102 52 20
      vertex 52 52 21.2
      vertex 102 52 21.2
    endloop
  endfacet
  facet normal 0 1 0
    outer loop
      vertex 52 52 21.2
      vertex 102 52 20
      vertex 52 52 20
    endloop
  endfacet
  facet normal -1 0 0
    outer loop
      vertex 102 1.05 20
      vertex 102 51 21.2
      vertex 102 51 20
    endloop
  endfacet
  facet normal -1 -0 0
    outer loop
      vertex 102 51 21.2
      vertex 102 1.05 20
      vertex 102 1.05 21.2
    endloop
  endfacet
  facet normal 0 -1 0
    outer loop
      vertex 52 51 20
      vertex 102 51 21.2
      vertex 52 51 21.2
    endloop
  endfacet
  facet normal 0 -1 -0
    outer loop
      vertex 102 51 21.2
      vertex 52 51 20
      vertex 102 51 20
    endloop
  endfacet
  facet normal 0 0 1
    outer loop
      vertex 102 51 20
      vertex 100 49 20
      vertex 102 1.05 20
    endloop
  endfacet
  facet normal 0 0 1
    outer loop
      vertex 102 51 20
      vertex 54 49 20
      vertex 100 49 20
    endloop
  endfacet
  facet normal 0 0 1
    outer loop
      vertex 52 1.05 20
      vertex 54 49 20
      vertex 52 51 20
    endloop
  endfacet
  facet normal -0 0 1
    outer loop
      vertex 52 51 20
      vertex 54 49 20
      vertex 102 51 20
    endloop
  endfacet
  facet normal -0 0 1
    outer loop
      vertex 100 3 20
      vertex 102 1.05 20
      vertex 100 49 20
    endloop
  endfacet
  facet normal -0 0 1
    outer loop
      vertex 54 3 20
      vertex 102 1.05 20
      vertex 100 3 20
    endloop
  endfacet
  facet normal 0 0 1
    outer loop
      vertex 54 3 20
      vertex 52 1.05 20
      vertex 102 1.05 20
    endloop
  endfacet
  facet normal 0 0 1
    outer loop
      vertex 54 49 20
      vertex 52 1.05 20
      vertex 54 3 20
    endloop
  endfacet
  facet normal -1 0 0
    outer loop
      vertex 100 21 0
      vertex 100 3 0
      vertex 100 21 5.05
    endloop
  endfacet
  facet normal -1 0 0
    outer loop
      vertex 100 31 5.05
      vertex 100 49 0
      vertex 100 31 0
    endloop
  endfacet
  facet normal -1 0 0
    outer loop
      vertex 100 49 0
      vertex 100 31 5.05
      vertex 100 49 20
    endloop
  endfacet
  facet normal -1 0 0
    outer loop
      vertex 100 21 5.05
      vertex 100 49 20
      vertex 100 31 5.05
    endloop
  endfacet
  facet normal -1 0 0
    outer loop
      vertex 100 3 20
      vertex 100 21 5.05
      vertex 100 3 0
    endloop
  endfacet
  facet normal -1 0 0
    outer loop
      vertex 100 21 5.05
      vertex 100 3 20
      vertex 100 49 20
    endloop
  endfacet
  facet normal 1 0 0
    outer loop
      vertex 54 49 20
      vertex 54 31 5.05
      vertex 54 49 0
    endloop
  endfacet
  facet normal 1 0 0
    outer loop
      vertex 54 49 20
      vertex 54 21 5.05
      vertex 54 31 5.05
    endloop
  endfacet
  facet normal 1 -0 0
    outer loop
      vertex 54 3 20
      vertex 54 21 5.05
      vertex 54 49 20
    endloop
  endfacet
  facet normal 1 0 0
    outer loop
      vertex 54 3 0
      vertex 54 21 5.05
      vertex 54 3 20
    endloop
  endfacet
  facet normal 1 0 0
    outer loop
      vertex 54 21 5.05
      vertex 54 3 0
      vertex 54 21 0
    endloop
  endfacet
  facet normal 1 0 0
    outer loop
      vertex 54 49 0
      vertex 54 31 5.05
      vertex 54 31 0
    endloop
  endfacet
  facet normal 0 -1 0
    outer loop
      vertex 54 49 20
      vertex 72 49 5.05
      vertex 100 49 20
    endloop
  endfacet
  facet normal 0 -1 0
    outer loop
      vertex 54 49 0
      vertex 72 49 5.05
      vertex 54 49 20
    endloop
  endfacet
  facet normal 0 -1 -0
    outer loop
      vertex 72 49 5.05
      vertex 54 49 0
      vertex 72 49 0
    endloop
  endfacet
  facet normal 0 -1 0
    outer loop
      vertex 82 49 5.05
      vertex 100 49 20
      vertex 72 49 5.05
    endloop
  endfacet
  facet normal 0 -1 0
    outer loop
      vertex 100 49 0
      vertex 82 49 5.05
      vertex 82 49 0
    endloop
  endfacet
  facet normal 0 -1 0
    outer loop
      vertex 82 49 5.05
      vertex 100 49 0
      vertex 100 49 20
    endloop
  endfacet
  facet normal 0 1 0
    outer loop
      vertex 100 3 20
      vertex 82 3 5.05
      vertex 54 3 20
    endloop
  endfacet
  facet normal 0 1 -0
    outer loop
      vertex 100 3 0
      vertex 82 3 5.05
      vertex 100 3 20
    endloop
  endfacet
  facet normal 0 1 0
    outer loop
      vertex 82 3 5.05
      vertex 100 3 0
      vertex 82 3 0
    endloop
  endfacet
  facet normal 0 1 -0
    outer loop
      vertex 72 3 5.05
      vertex 54 3 20
      vertex 82 3 5.05
    endloop
  endfacet
  facet normal 0 1 0
    outer loop
      vertex 54 3 0
      vertex 72 3 5.05
      vertex 72 3 0
    endloop
  endfacet
  facet normal 0 1 0
    outer loop
      vertex 72 3 5.05
      vertex 54 3 0
      vertex 54 3 20
    endloop
  endfacet
  facet normal -1 0 0
    outer loop
      vertex 82 1.05 0
      vertex 82 3 5.05
      vertex 82 3 0
    endloop
  endfacet
  facet normal -1 -0 0
    outer loop
      vertex 82 3 5.05
      vertex 82 1.05 0
      vertex 82 1.05 5.05
    endloop
  endfacet
  facet normal -1 0 0
    outer loop
      vertex 82 49 0
      vertex 82 54 5.05
      vertex 82 54 0
    endloop
  endfacet
  facet normal -1 -0 0
    outer loop
      vertex 82 54 5.05
      vertex 82 49 0
      vertex 82 49 5.05
    endloop
  endfacet
  facet normal 0 0 -1
    outer loop
      vertex 72 49 5.05
      vertex 82 54 5.05
      vertex 82 49 5.05
    endloop
  endfacet
  facet normal -0 0 -1
    outer loop
      vertex 82 54 5.05
      vertex 72 49 5.05
      vertex 72 54 5.05
    endloop
  endfacet
  facet normal 0 0 -1
    outer loop
      vertex 72 1.05 5.05
      vertex 82 3 5.05
      vertex 82 1.05 5.05
    endloop
  endfacet
  facet normal -0 0 -1
    outer loop
      vertex 82 3 5.05
      vertex 72 1.05 5.05
      vertex 72 3 5.05
    endloop
  endfacet
  facet normal 1 -0 0
    outer loop
      vertex 72 1.05 5.05
      vertex 72 3 0
      vertex 72 3 5.05
    endloop
  endfacet
  facet normal 1 0 0
    outer loop
      vertex 72 3 0
      vertex 72 1.05 5.05
      vertex 72 1.05 0
    endloop
  endfacet
  facet normal 1 -0 0
    outer loop
      vertex 72 49 5.05
      vertex 72 54 0
      vertex 72 54 5.05
    endloop
  endfacet
  facet normal 1 0 0
    outer loop
      vertex 72 54 0
      vertex 72 49 5.05
      vertex 72 49 0
    endloop
  endfacet
  facet normal 0 0 -1
    outer loop
      vertex 100 21 5.05
      vertex 103 31 5.05
      vertex 103 21 5.05
    endloop
  endfacet
  facet normal -0 0 -1
    outer loop
      vertex 103 31 5.05
      vertex 100 21 5.05
      vertex 100 31 5.05
    endloop
  endfacet
  facet normal 0 -1 0
    outer loop
      vertex 100 31 0
      vertex 103 31 5.05
      vertex 100 31 5.05
    endloop
  endfacet
  facet normal 0 -1 -0
    outer loop
      vertex 103 31 5.05
      vertex 100 31 0
      vertex 103 31 0
    endloop
  endfacet
  facet normal 0 1 -0
    outer loop
      vertex 103 21 0
      vertex 100 21 5.05
      vertex 103 21 5.05
    endloop
  endfacet
  facet normal 0 1 0
    outer loop
      vertex 100 21 5.05
      vertex 103 21 0
      vertex 100 21 0
    endloop
  endfacet
  facet normal 0 0 -1
    outer loop
      vertex 100 100 0
      vertex 103 82 0
      vertex 100 82 0
    endloop
  endfacet
  facet normal 0 0 -1
    outer loop
      vertex 103 82 0
      vertex 100 100 0
      vertex 103 103 0
    endloop
  endfacet
  facet normal 0 0 -1
    outer loop
      vertex 82 103 0
      vertex 100 100 0
      vertex 82 100 0
    endloop
  endfacet
  facet normal 0 0 -1
    outer loop
      vertex 100 100 0
      vertex 82 103 0
      vertex 103 103 0
    endloop
  endfacet
  facet normal -1 0 0
    outer loop
      vertex 102 52 20
      vertex 102 102 21.2
      vertex 102 102 20
    endloop
  endfacet
  facet normal -1 -0 0
    outer loop
      vertex 102 102 21.2
      vertex 102 52 20
      vertex 102 52 21.2
    endloop
  endfacet
  facet normal 0 -1 0
    outer loop
      vertex 52 102 20
      vertex 102 102 21.2
      vertex 52 102 21.2
    endloop
  endfacet
  facet normal 0 -1 -0
    outer loop
      vertex 102 102 21.2
      vertex 52 102 20
      vertex 102 102 20
    endloop
  endfacet
  facet normal 0 0 1
    outer loop
      vertex 102 102 20
      vertex 100 100 20
      vertex 102 52 20
    endloop
  endfacet
  facet normal 0 0 1
    outer loop
      vertex 102 102 20
      vertex 54 100 20
      vertex 100 100 20
    endloop
  endfacet
  facet normal 0 0 1
    outer loop
      vertex 54 100 20
      vertex 52 102 20
      vertex 54 54 20
    endloop
  endfacet
  facet normal -0 0 1
    outer loop
      vertex 52 102 20
      vertex 54 100 20
      vertex 102 102 20
    endloop
  endfacet
  facet normal -0 0 1
    outer loop
      vertex 100 54 20
      vertex 102 52 20
      vertex 100 100 20
    endloop
  endfacet
  facet normal -0 0 1
    outer loop
      vertex 54 54 20
      vertex 102 52 20
      vertex 100 54 20
    endloop
  endfacet
  facet normal 0 0 1
    outer loop
      vertex 54 54 20
      vertex 52 52 20
      vertex 102 52 20
    endloop
  endfacet
  facet normal 0 0 1
    outer loop
      vertex 52 52 20
      vertex 54 54 20
      vertex 52 102 20
    endloop
  endfacet
  facet normal -1 0 0
    outer loop
      vertex 100 72 0
      vertex 100 54 0
      vertex 100 72 5.05
    endloop
  endfacet
  facet normal -1 0 0
    outer loop
      vertex 100 82 5.05
      vertex 100 100 0
      vertex 100 82 0
    endloop
  endfacet
  facet normal -1 0 0
    outer loop
      vertex 100 100 0
      vertex 100 82 5.05
      vertex 100 100 20
    endloop
  endfacet
  facet normal -1 0 0
    outer loop
      vertex 100 72 5.05
      vertex 100 100 20
      vertex 100 82 5.05
    endloop
  endfacet
  facet normal -1 0 0
    outer loop
      vertex 100 54 20
      vertex 100 72 5.05
      vertex 100 54 0
    endloop
  endfacet
  facet normal -1 0 0
    outer loop
      vertex 100 72 5.05
      vertex 100 54 20
      vertex 100 100 20
    endloop
  endfacet
  facet normal 1 0 0
    outer loop
      vertex 54 100 20
      vertex 54 82 5.05
      vertex 54 100 0
    endloop
  endfacet
  facet normal 1 0 0
    outer loop
      vertex 54 100 20
      vertex 54 72 5.05
      vertex 54 82 5.05
    endloop
  endfacet
  facet normal 1 -0 0
    outer loop
      vertex 54 54 20
      vertex 54 72 5.05
      vertex 54 100 20
    endloop
  endfacet
  facet normal 1 0 0
    outer loop
      vertex 54 54 0
      vertex 54 72 5.05
      vertex 54 54 20
    endloop
  endfacet
  facet normal 1 0 0
    outer loop
      vertex 54 72 5.05
      vertex 54 54 0
      vertex 54 72 0
    endloop
  endfacet
  facet normal 1 0 0
    outer loop
      vertex 54 100 0
      vertex 54 82 5.05
      vertex 54 82 0
    endloop
  endfacet
  facet normal 0 -1 0
    outer loop
      vertex 54 100 20
      vertex 72 100 5.05
      vertex 100 100 20
    endloop
  endfacet
  facet normal 0 -1 0
    outer loop
      vertex 54 100 0
      vertex 72 100 5.05
      vertex 54 100 20
    endloop
  endfacet
  facet normal 0 -1 -0
    outer loop
      vertex 72 100 5.05
      vertex 54 100 0
      vertex 72 100 0
    endloop
  endfacet
  facet normal 0 -1 0
    outer loop
      vertex 82 100 5.05
      vertex 100 100 20
      vertex 72 100 5.05
    endloop
  endfacet
  facet normal 0 -1 0
    outer loop
      vertex 100 100 0
      vertex 82 100 5.05
      vertex 82 100 0
    endloop
  endfacet
  facet normal 0 -1 0
    outer loop
      vertex 82 100 5.05
      vertex 100 100 0
      vertex 100 100 20
    endloop
  endfacet
  facet normal 0 1 0
    outer loop
      vertex 100 54 20
      vertex 82 54 5.05
      vertex 54 54 20
    endloop
  endfacet
  facet normal 0 1 -0
    outer loop
      vertex 100 54 0
      vertex 82 54 5.05
      vertex 100 54 20
    endloop
  endfacet
  facet normal 0 1 0
    outer loop
      vertex 82 54 5.05
      vertex 100 54 0
      vertex 82 54 0
    endloop
  endfacet
  facet normal 0 1 -0
    outer loop
      vertex 72 54 5.05
      vertex 54 54 20
      vertex 82 54 5.05
    endloop
  endfacet
  facet normal 0 1 0
    outer loop
      vertex 54 54 0
      vertex 72 54 5.05
      vertex 72 54 0
    endloop
  endfacet
  facet normal 0 1 0
    outer loop
      vertex 72 54 5.05
      vertex 54 54 0
      vertex 54 54 20
    endloop
  endfacet
  facet normal -1 0 0
    outer loop
      vertex 82 100 0
      vertex 82 103 5.05
      vertex 82 103 0
    endloop
  endfacet
  facet normal -1 -0 0
    outer loop
      vertex 82 103 5.05
      vertex 82 100 0
      vertex 82 100 5.05
    endloop
  endfacet
  facet normal 0 0 -1
    outer loop
      vertex 72 100 5.05
      vertex 82 103 5.05
      vertex 82 100 5.05
    endloop
  endfacet
  facet normal -0 0 -1
    outer loop
      vertex 82 103 5.05
      vertex 72 100 5.05
      vertex 72 103 5.05
    endloop
  endfacet
  facet normal 1 -0 0
    outer loop
      vertex 72 100 5.05
      vertex 72 103 0
      vertex 72 103 5.05
    endloop
  endfacet
  facet normal 1 0 0
    outer loop
      vertex 72 103 0
      vertex 72 100 5.05
      vertex 72 100 0
    endloop
  endfacet
  facet normal 0 0 -1
    outer loop
      vertex 100 72 5.05
      vertex 103 82 5.05
      vertex 103 72 5.05
    endloop
  endfacet
  facet normal -0 0 -1
    outer loop
      vertex 103 82 5.05
      vertex 100 72 5.05
      vertex 100 82 5.05
    endloop
  endfacet
  facet normal 0 -1 0
    outer loop
      vertex 100 82 0
      vertex 103 82 5.05
      vertex 100 82 5.05
    endloop
  endfacet
  facet normal 0 -1 -0
    outer loop
      vertex 103 82 5.05
      vertex 100 82 0
      vertex 103 82 0
    endloop
  endfacet
  facet normal 0 1 -0
    outer loop
      vertex 103 72 0
      vertex 100 72 5.05
      vertex 103 72 5.05
    endloop
  endfacet
  facet normal 0 1 0
    outer loop
      vertex 100 72 5.05
      vertex 103 72 0
      vertex 100 72 0
    endloop
  endfacet
  facet normal 0 -1 0
    outer loop
      vertex 72 1.05 0
      vertex 52 1.05 20
      vertex 31 1.05 0
    endloop
  endfacet
  facet normal 0 -1 0
    outer loop
      vertex 52 1.05 20
      vertex 72 1.05 0
      vertex 72 1.05 5.05
    endloop
  endfacet
  facet normal 0 -1 0
    outer loop
      vertex 0 1.05 21.2
      vertex 1 1.05 20
      vertex 1 1.05 21.2
    endloop
  endfacet
  facet normal 0 -1 0
    outer loop
      vertex 31 1.05 5.05
      vertex 51 1.05 20
      vertex 1 1.05 20
    endloop
  endfacet
  facet normal 0 -1 0
    outer loop
      vertex 31 1.05 0
      vertex 51 1.05 20
      vertex 31 1.05 5.05
    endloop
  endfacet
  facet normal 0 -1 0
    outer loop
      vertex 31 1.05 5.05
      vertex 1 1.05 20
      vertex 21 1.05 5.05
    endloop
  endfacet
  facet normal 0 -1 0
    outer loop
      vertex 0 1.05 0
      vertex 1 1.05 20
      vertex 0 1.05 21.2
    endloop
  endfacet
  facet normal 0 -1 0
    outer loop
      vertex 0 1.05 0
      vertex 21 1.05 5.05
      vertex 1 1.05 20
    endloop
  endfacet
  facet normal 0 -1 -0
    outer loop
      vertex 21 1.05 5.05
      vertex 0 1.05 0
      vertex 21 1.05 0
    endloop
  endfacet
  facet normal 0 -1 0
    outer loop
      vertex 51 1.05 20
      vertex 52 1.05 21.2
      vertex 51 1.05 21.2
    endloop
  endfacet
  facet normal 0 -1 -0
    outer loop
      vertex 52 1.05 21.2
      vertex 51 1.05 20
      vertex 52 1.05 20
    endloop
  endfacet
  facet normal 0 -1 0
    outer loop
      vertex 102 1.05 20
      vertex 103 1.05 21.2
      vertex 102 1.05 21.2
    endloop
  endfacet
  facet normal 0 -1 -0
    outer loop
      vertex 51 1.05 20
      vertex 31 1.05 0
      vertex 52 1.05 20
    endloop
  endfacet
  facet normal 0 -1 0
    outer loop
      vertex 52 1.05 20
      vertex 72 1.05 5.05
      vertex 102 1.05 20
    endloop
  endfacet
  facet normal 0 -1 0
    outer loop
      vertex 82 1.05 5.05
      vertex 102 1.05 20
      vertex 72 1.05 5.05
    endloop
  endfacet
  facet normal 0 -1 0
    outer loop
      vertex 103 1.05 0
      vertex 82 1.05 5.05
      vertex 82 1.05 0
    endloop
  endfacet
  facet normal 0 -1 0
    outer loop
      vertex 102 1.05 20
      vertex 103 1.05 0
      vertex 103 1.05 21.2
    endloop
  endfacet
  facet normal 0 -1 0
    outer loop
      vertex 82 1.05 5.05
      vertex 103 1.05 0
      vertex 102 1.05 20
    endloop
  endfacet
endsolid OpenSCAD_Model
